<svg width="24" height="24" viewBox="0 0 24 24" fill="none" xmlns="http://www.w3.org/2000/svg">
<path fill-rule="evenodd" clip-rule="evenodd" d="M23.5 22.8L22.1 17.3C23 15.65 23.5 13.75 23.5 11.75C23.5 5.25 18.25 0 11.75 0C5.25 0 0 5.25 0 11.75C0 18.25 5.25 23.5 11.75 23.5C13.75 23.5 15.65 23 17.3 22.1L22.8 23.5C23.2 23.6 23.6 23.2 23.5 22.8ZM22 11.75C22 13.75 21.5 15.25 20.7 16.75C20.6 16.95 20.55 17.2 20.6 17.45L21.65 21.65L17.5 20.6C17.25 20.55 17 20.55 16.8 20.7C15.9 21.2 14.2 22 11.8 22C6.1 22 1.5 17.4 1.5 11.75C1.5 6.1 6.1 1.5 11.75 1.5C17.4 1.5 22 6.1 22 11.75Z" fill="#262626"/>
</svg>
