<svg width="23" height="23" viewBox="0 0 23 23" fill="none" xmlns="http://www.w3.org/2000/svg">
<path d="M11.01 0C4.93248 0 0 4.93248 0 11.01C0 17.0875 4.93248 22.02 11.01 22.02C17.0875 22.02 22.02 17.0875 22.02 11.01C22.02 4.93248 17.0875 0 11.01 0ZM11.01 3.303C12.8377 3.303 14.313 4.77834 14.313 6.606C14.313 8.43366 12.8377 9.909 11.01 9.909C9.18234 9.909 7.707 8.43366 7.707 6.606C7.707 4.77834 9.18234 3.303 11.01 3.303ZM11.01 18.9372C8.2575 18.9372 5.82429 17.5279 4.404 15.392C4.43703 13.201 8.808 12.0009 11.01 12.0009C13.201 12.0009 17.583 13.201 17.616 15.392C16.1957 17.5279 13.7625 18.9372 11.01 18.9372Z" fill="#262626"/>
</svg>
