<svg width="10" height="10" viewBox="0 0 10 10" fill="none" xmlns="http://www.w3.org/2000/svg">
<path d="M4.27647 8.55249C5.2253 8.5523 6.14679 8.23468 6.89421 7.6502L9.24413 10L10 9.24417L7.65008 6.89438C8.23489 6.14692 8.55272 5.22527 8.55295 4.27625C8.55295 1.91843 6.63441 0 4.27647 0C1.91853 0 0 1.91843 0 4.27625C0 6.63406 1.91853 8.55249 4.27647 8.55249ZM4.27647 1.06906C6.04533 1.06906 7.48383 2.50748 7.48383 4.27625C7.48383 6.04501 6.04533 7.48343 4.27647 7.48343C2.50762 7.48343 1.06912 6.04501 1.06912 4.27625C1.06912 2.50748 2.50762 1.06906 4.27647 1.06906Z" fill="#8E8E8E"/>
</svg>
